<svg width="20" height="23" viewBox="0 0 20 23" fill="none" xmlns="http://www.w3.org/2000/svg">
    <circle cx="7" cy="12" r="1" stroke="#1B1B1B" stroke-width="1.2"/>
    <circle cx="5" cy="6" r="2" stroke="#1B1B1B" stroke-width="1.5"/>
    <circle cx="10" cy="4" r="3" stroke="#1B1B1B" stroke-width="1.5"/>
    <circle cx="15" cy="6" r="2" stroke="#1B1B1B" stroke-width="1.5"/>
    <path fill-rule="evenodd" clip-rule="evenodd" d="M12.7429 5.21691C12.9082 4.84498 13 4.4332 13 3.99997C13 3.90418 12.9955 3.80944 12.9867 3.71594C13.3918 3.84616 13.7853 4.00214 14.1654 4.18198C13.6701 4.40974 13.2838 4.83394 13.1064 5.35478C12.9866 5.30606 12.8654 5.26008 12.7429 5.21691ZM7.25709 5.21691C7.09183 4.84498 7 4.4332 7 3.99997C7 3.90418 7.00449 3.80944 7.01327 3.71594C6.60819 3.84616 6.21467 4.00214 5.83464 4.18198C6.32994 4.40974 6.7162 4.83394 6.89363 5.35478C7.01341 5.30606 7.13458 5.26008 7.25709 5.21691ZM3.77742 7.58296C3.35471 7.256 3.06655 6.76348 3.01013 6.20259C1.30198 7.95881 0.25 10.3565 0.25 13C0.25 18.3847 4.61522 22.75 10 22.75C15.3848 22.75 19.75 18.3847 19.75 13C19.75 10.3565 18.698 7.95881 16.9899 6.20259C16.9335 6.76348 16.6453 7.256 16.2226 7.58296C17.4853 9.03224 18.25 10.9268 18.25 13C18.25 17.5563 14.5563 21.25 10 21.25C5.44365 21.25 1.75 17.5563 1.75 13C1.75 10.9268 2.5147 9.03224 3.77742 7.58296Z" fill="#1B1B1B"/>
    <circle cx="13" cy="12" r="1" stroke="#1B1B1B" stroke-width="1.2"/>
    <path fill-rule="evenodd" clip-rule="evenodd" d="M6.6314 16C5.95819 16 5.57082 16.7284 6.06125 17.1896C7.0902 18.1572 8.47562 18.75 9.9995 18.75C11.5234 18.75 12.9088 18.1572 13.9378 17.1896C14.4282 16.7284 14.0408 16 13.3676 16C13.1386 16 12.9217 16.0944 12.7471 16.2425C12.0062 16.871 11.0471 17.25 9.9995 17.25C8.95188 17.25 7.99279 16.871 7.2519 16.2425C7.07727 16.0944 6.86039 16 6.6314 16Z" fill="#1B1B1B"/>
</svg>
